:SAMPLES-PER-SECOND 30
:FULLY-SPECIFIED
:DEGREES
511
root  4.87467 18.107 -52.5735 -142.073 5.16071 177.299
RightUpLeg  -56.148 0.680864 10.2912
RightLeg  125.558 27.1015 -14.678
RightFoot  -4.52136 0.238439 -3.02784
RightToes  -5.82073e-011 -3.18055e-015 -2.98177e-016
Spine  40.541 3.92469 24.4023
Spine1  -16.5006 12.6988 -9.21766
HEad  -34.7682 -22.1317 29.7968
LeftShoulder1  -3.88251e-019 9.70628e-020 -3.87848e-018
LeftArm  22.5617 12.1914 -75.5567
LeftForeArm  -0.00926073 -41.3944 10.033
LeftHand  -2.3196 -11.2011 16.7972
RightShoulder  3.02995 11.9322 9.48371
RightArm  -10.3698 20.6356 50.3164
RightForeArm  48.9653 -9.34099 -15.4719
RightHand  -2.71443 3.94752 -32.6738
LeftUpLeg  -53.6044 4.31869 -9.20591
LeftLeg  129.6 -19.5119 7.32836
LeftFoot  -23.6101 -0.567379 -5.45831
LeftToes  -2.27483e-011 -5.53417e-011 9.36564e-012
512
root  4.94383 18.3068 -52.4219 -145.497 3.85849 176.396
RightUpLeg  -52.8901 -1.46139 10.7695
RightLeg  124.576 27.8449 -16.0127
RightFoot  -3.95185 0.208772 -2.49515
RightToes  -5.82073e-011 -3.18055e-015 -2.98177e-016
Spine  40.4864 3.80051 25.4131
Spine1  -16.9097 12.9575 -9.49678
HEad  -35.427 -23.1584 30.9133
LeftShoulder1  -3.88251e-019 9.70628e-020 -3.87848e-018
LeftArm  24.5489 19.8026 -76.0207
LeftForeArm  -1.29128 -42.6852 10.458
LeftHand  -2.126 -11.3778 15.2779
RightShoulder  2.92324 11.9087 8.92294
RightArm  -10.9459 16.9191 47.2371
RightForeArm  55.8375 -9.04288 -15.3536
RightHand  -1.9923 5.04945 -21.9032
LeftUpLeg  -49.3617 3.53312 -9.17787
LeftLeg  128.232 -20.1287 8.36625
LeftFoot  -25.1019 -0.788305 -6.79773
LeftToes  -2.27483e-011 -5.53417e-011 9.36564e-012
513
root  5.01358 18.4888 -52.356 -148.139 2.82826 175.186
RightUpLeg  -50.2585 -3.07008 9.75109
RightLeg  124.651 27.2172 -15.2364
RightFoot  -3.47737 0.249796 -2.87437
RightToes  -5.82073e-011 -3.18055e-015 -2.98177e-016
Spine  39.6452 3.66846 25.6683
Spine1  -17.0774 12.7584 -10.16
HEad  -35.083 -24.001 30.7976
LeftShoulder1  -3.88251e-019 9.70628e-020 -3.87848e-018
LeftArm  25.925 26.619 -75.6762
LeftForeArm  -1.76262 -41.2777 9.88989
LeftHand  -1.93938 -11.5083 13.8666
RightShoulder  3.3023 11.8522 11.0392
RightArm  -10.0372 14.7382 43.7619
RightForeArm  59.1064 -8.40628 -13.9981
RightHand  -1.45975 6.46811 -14.201
LeftUpLeg  -45.7853 2.36209 -9.52104
LeftLeg  126.842 -20.3595 9.01154
LeftFoot  -26.5201 -1.16736 -9.32541
LeftToes  -2.27483e-011 -5.53417e-011 9.36564e-012
514
root  5.1238 18.6639 -52.3685 -149.643 1.70279 173.751
RightUpLeg  -48.4392 -4.32894 8.22544
RightLeg  125.005 25.9435 -13.5531
RightFoot  -3.11543 0.307055 -3.43949
RightToes  -5.82073e-011 -3.18055e-015 -2.98177e-016
Spine  37.9043 3.62208 25.3226
Spine1  -16.9985 12.1942 -11.0687
HEad  -34.737 -24.5357 30.3438
LeftShoulder1  -3.88251e-019 9.70628e-020 -3.87848e-018
LeftArm  25.5124 32.1882 -75.0115
LeftForeArm  -2.23497 -37.5013 8.55245
LeftHand  -1.75683 -11.01 12.9851
RightShoulder  3.68418 11.6399 13.3604
RightArm  -9.40107 11.2389 40.5559
RightForeArm  57.2547 -7.84251 -12.3362
RightHand  -1.05683 6.72566 -10.1506
LeftUpLeg  -44.7846 0.168639 -9.32214
LeftLeg  126.902 -19.094 7.48777
LeftFoot  -25.4817 -1.16452 -10.0058
LeftToes  -2.27483e-011 -5.53417e-011 9.36564e-012
515
root  5.28166 18.8229 -52.3894 -150.651 -0.00834656 172.318
RightUpLeg  -46.7107 -6.02868 7.27787
RightLeg  124.936 24.9928 -12.4282
RightFoot  -3.23351 0.272848 -3.07464
RightToes  -5.82073e-011 -3.18055e-015 -2.98177e-016
Spine  36.0034 3.35137 24.5561
Spine1  -16.9502 11.221 -11.6076
HEad  -34.653 -24.6333 29.7788
LeftShoulder1  -3.88251e-019 9.70628e-020 -3.87848e-018
LeftArm  23.4727 36.7697 -74.0132
LeftForeArm  -4.64994 -32.7168 7.07182
LeftHand  -1.67706 -9.79953 13.4013
RightShoulder  4.13461 11.2806 16.2745
RightArm  -8.5713 6.7754 37.2889
RightForeArm  53.2956 -7.25974 -10.4014
RightHand  -0.99422 6.20096 -9.97204
LeftUpLeg  -46.6944 -2.44913 -8.2381
LeftLeg  128.718 -17.1699 4.85239
LeftFoot  -21.0588 -0.577387 -7.40694
LeftToes  -2.27483e-011 -5.53417e-011 9.36564e-012
516
root  5.47007 18.9572 -52.3626 -152.052 -2.21571 170.788
RightUpLeg  -44.3751 -8.46711 6.67623
RightLeg  124.575 24.5432 -12.0125
RightFoot  -3.79231 0.171474 -2.01293
RightToes  -5.82073e-011 -3.18055e-015 -2.98177e-016
Spine  34.7276 2.76253 23.0533
Spine1  -16.7539 9.89638 -11.2599
HEad  -34.4917 -24.4811 28.7676
LeftShoulder1  -3.88251e-019 9.70628e-020 -3.87848e-018
LeftArm  18.2865 40.5196 -72.5749
LeftForeArm  -7.72998 -28.1251 4.80083
LeftHand  -1.70824 -8.37565 15.0311
RightShoulder  4.91695 11.0963 20.788
RightArm  -6.21289 3.25565 32.7168
RightForeArm  49.5663 -6.21817 -7.52289
RightHand  -1.1194 5.82754 -11.5577
LeftUpLeg  -49.9128 -4.0138 -7.29691
LeftLeg  130.921 -17.1082 4.43327
LeftFoot  -16.3216 -0.162056 -3.89841
LeftToes  -2.27483e-011 -5.53417e-011 9.36564e-012
517
root  5.68872 19.0968 -52.3139 -153.792 -4.44269 168.689
RightUpLeg  -41.7573 -11.3229 5.46354
RightLeg  124.153 24.3162 -11.8888
RightFoot  -4.15328 0.107823 -1.28058
RightToes  -5.82073e-011 -3.18055e-015 -2.98177e-016
Spine  33.9467 2.20974 20.1505
Spine1  -15.7144 8.38638 -10.0835
HEad  -34.0903 -24.1121 27.276
LeftShoulder1  -3.88251e-019 9.70628e-020 -3.87848e-018
LeftArm  4.40486 43.0692 -70.3977
LeftForeArm  -3.74792 -24.0063 -0.41454
LeftHand  -1.74407 -7.16992 16.7997
RightShoulder  5.59855 10.9639 24.6606
RightArm  -2.76682 -0.676724 28.0322
RightForeArm  45.1213 -3.87333 -4.28791
RightHand  -1.11036 5.59271 -11.6944
LeftUpLeg  -53.2502 -4.04446 -7.9955
LeftLeg  132.083 -20.4037 7.66943
LeftFoot  -14.7287 -0.0260508 0.221257
LeftToes  -2.27483e-011 -5.53417e-011 9.36564e-012
518
root  5.93886 19.2977 -52.3204 -155.316 -6.61311 166.032
RightUpLeg  -39.3139 -14.2563 3.63414
RightLeg  123.388 24.2393 -12.0887
RightFoot  -3.92492 0.0927 -1.07277
RightToes  -5.82073e-011 -3.18055e-015 -2.98177e-016
Spine  33.2591 1.80131 16.351
Spine1  -13.5845 6.84537 -9.23928
HEad  -33.6848 -23.5821 25.8463
LeftShoulder1  -3.88251e-019 9.70628e-020 -3.87848e-018
LeftArm  -9.69793 44.1716 -67.8247
LeftForeArm  0.356004 -19.3605 -4.0346
LeftHand  -1.64791 -5.90222 17.6852
RightShoulder  6.02463 10.7941 27.224
RightArm  0.77379 -6.17383 23.9787
RightForeArm  39.1779 0.893578 -2.20424
RightHand  -0.926641 5.44015 -9.92191
LeftUpLeg  -57.2539 -3.56193 -9.87421
LeftLeg  131.896 -25.0787 12.3643
LeftFoot  -18.3219 -0.100927 -0.863962
LeftToes  -2.27483e-011 -5.53417e-011 9.36564e-012
519
root  6.15974 19.5249 -52.3836 -156.567 -9.2623 163.377
RightUpLeg  -36.6699 -17.5472 1.78198
RightLeg  122.284 24.2396 -12.5332
RightFoot  -3.75141 0.0792937 -0.933016
RightToes  -5.82073e-011 -3.18055e-015 -2.98177e-016
Spine  32.245 1.3322 12.7337
Spine1  -10.5248 5.28632 -8.52209
HEad  -33.095 -23.032 24.0688
LeftShoulder1  -3.88251e-019 9.70628e-020 -3.87848e-018
LeftArm  -16.3073 44.2788 -65.6419
LeftForeArm  -1.91975 -15.5343 -4.42835
LeftHand  -1.39788 -4.24891 17.6728
RightShoulder  6.40717 10.7029 29.4063
RightArm  3.86043 -12.4546 20.0902
RightForeArm  32.598 6.51729 -1.47402
RightHand  -0.770652 5.09869 -8.54368
LeftUpLeg  -62.6144 -3.84131 -12.2742
LeftLeg  130.831 -28.7583 16.3422
LeftFoot  -23.6793 -0.342363 -3.03244
LeftToes  -2.27483e-011 -5.53417e-011 9.36564e-012
520
root  6.32691 19.7332 -52.4579 -157.529 -11.6844 160.979
RightUpLeg  -34.0918 -20.4922 -0.210528
RightLeg  121.299 24.1763 -12.8583
RightFoot  -3.87363 0.0703098 -0.858926
RightToes  -5.82073e-011 -3.18055e-015 -2.98177e-016
Spine  31.3746 1.01428 9.78145
Spine1  -7.63066 4.0763 -8.81817
HEad  -31.7995 -23.1338 21.7887
LeftShoulder1  -3.88251e-019 9.70628e-020 -3.87848e-018
LeftArm  -17.7816 44.0129 -63.8139
LeftForeArm  -6.04174 -13.0137 -3.94206
LeftHand  -1.14345 -2.74424 17.2643
RightShoulder  6.92272 10.7161 32.0497
RightArm  7.62278 -18.9509 15.6447
RightForeArm  25.3777 12.0988 -2.01625
RightHand  -0.743527 4.16006 -9.03007
LeftUpLeg  -69.3536 -4.49899 -15.4518
LeftLeg  128.797 -30.7218 19.3007
LeftFoot  -27.8238 -0.51821 -3.47132
LeftToes  -2.27483e-011 -5.53417e-011 9.36564e-012
521
root  6.44148 19.9315 -52.517 -158.528 -13.4016 158.957
RightUpLeg  -31.6444 -22.5711 -2.50639
RightLeg  120.559 23.9242 -12.8209
RightFoot  -3.71106 0.105255 -1.23171
RightToes  -5.82073e-011 -3.18055e-015 -2.98177e-016
Spine  31.0155 0.997445 7.28554
Spine1  -5.32346 3.34231 -9.76117
HEad  -29.6787 -23.678 19.1063
LeftShoulder1  -3.88251e-019 9.70628e-020 -3.87848e-018
LeftArm  -18.2835 44.0668 -62.2916
LeftForeArm  -7.38662 -11.738 -3.57261
LeftHand  -1.01144 -2.1183 16.6311
RightShoulder  7.39298 10.7638 34.3412
RightArm  13.4374 -25.5979 11.8895
RightForeArm  17.2774 15.8676 -3.97076
RightHand  -0.774491 3.18396 -10.3956
LeftUpLeg  -76.0584 -5.11294 -19.1141
LeftLeg  125.527 -30.4893 21.0037
LeftFoot  -30.1152 -0.437215 -2.37156
LeftToes  -2.27483e-011 -5.53417e-011 9.36564e-012
522
root  6.49886 20.0889 -52.5732 -159.56 -14.4881 157.55
RightUpLeg  -29.4466 -23.7922 -4.68839
RightLeg  120.011 23.5478 -12.5123
RightFoot  -3.08358 0.170664 -1.88823
RightToes  -5.82073e-011 -3.18055e-015 -2.98177e-016
Spine  30.8102 1.23463 5.18609
Spine1  -3.52152 2.92751 -10.7274
HEad  -27.3506 -23.9595 16.5298
LeftShoulder1  -3.88251e-019 9.70628e-020 -3.87848e-018
LeftArm  -18.4467 44.678 -61.1196
LeftForeArm  -6.61684 -11.5066 -3.29563
LeftHand  -1.0083 -2.41094 15.9438
RightShoulder  7.6979 10.8035 35.7794
RightArm  16.0461 -31.7803 9.73922
RightForeArm  13.9926 16.7818 -5.24963
RightHand  -0.792297 3.0354 -10.8259
LeftUpLeg  -81.6078 -5.63558 -22.202
LeftLeg  121.887 -27.866 20.3337
LeftFoot  -31.4309 -0.451257 -2.25955
LeftToes  -2.27483e-011 -5.53417e-011 9.36564e-012
523
root  6.49289 20.1876 -52.6478 -160.491 -15.1227 156.974
RightUpLeg  -27.5935 -24.3435 -6.22017
RightLeg  119.632 23.1322 -12.0588
RightFoot  -2.51871 0.212714 -2.26298
RightToes  -5.82073e-011 -3.18055e-015 -2.98177e-016
Spine  30.5289 1.58299 3.80749
Spine1  -2.28708 2.7563 -11.8553
HEad  -25.462 -23.8169 14.4028
LeftShoulder1  -3.88251e-019 9.70628e-020 -3.87848e-018
LeftArm  -17.966 45.746 -60.2615
LeftForeArm  -5.35358 -11.7554 -3.33939
LeftHand  -1.05541 -3.02082 15.4335
RightShoulder  7.90763 10.8519 36.7097
RightArm  15.1143 -37.0053 8.52258
RightForeArm  16.1699 15.9305 -4.82806
RightHand  -0.727768 3.30843 -9.62734
LeftUpLeg  -85.9239 -6.00717 -24.2576
LeftLeg  118.333 -24.3343 17.9049
LeftFoot  -32.482 -0.724358 -3.71768
LeftToes  -2.27483e-011 -5.53417e-011 9.36564e-012
